<svg width="1861" height="1079" viewBox="0 0 1861 1079" fill="none" xmlns="http://www.w3.org/2000/svg">
<path d="M0 1018.46V955.005C12.8195 949.642 39.1579 938.739 41.9549 938.024L97.8947 923.724L153.835 916.574L180.639 902.274L224.925 891.549L266.88 862.056L276.203 813.794V797.707L279.699 783.407L308.835 756.595L335.639 725.314L360.113 707.44L367.105 660.965L363.609 619.854L348.459 571.592L323.985 523.33L296.015 479.537V457.193L311.165 430.381L337.97 401.782L361.278 362.457L376.429 296.321C374.486 278.148 370.602 241.445 370.602 240.015V192.647L383.421 150.642V128.298L388.083 147.067L405.564 134.554L391.579 156.004L388.083 170.304L383.421 192.647V230.184L388.083 272.19V288.277C388.471 295.427 389.015 309.906 388.083 310.621C387.15 311.336 384.586 326.41 383.421 333.858L376.429 360.67L365.94 383.907L390.414 357.095L424.211 328.495L444.023 307.939L469.662 267.721L485.977 235.547L489.474 198.01L494.135 232.866L489.474 250.74L474.323 283.809L439.361 333.858L388.083 387.482C379.148 397.015 361.278 416.439 361.278 417.869C361.278 419.299 341.078 440.51 330.977 450.937L323.985 461.662V471.493L335.639 488.474L353.12 516.18L367.105 535.842L374.098 552.823L377.594 558.186L391.579 543.886L419.549 525.117L442.857 512.605L478.985 490.262L501.128 471.493L546.579 450.937L553.571 445.575L557.068 431.275L559.398 441.106L588.534 416.082L607.18 389.269L623.496 362.457C624.662 361.266 626.992 358.167 626.992 355.307V341.008L630.489 348.158L653.797 331.177L633.985 355.307L623.496 373.182L613.008 399.101L588.534 434.85L559.398 456.3L561.729 458.981L604.85 456.3L616.504 445.575L613.008 458.981H630.489L649.135 456.3L671.278 448.256L653.797 458.981L638.647 462.556L610.677 465.237H561.729L541.917 468.812L518.609 480.431L483.647 501.88L452.18 529.586L419.549 561.761L404.399 581.423L396.241 604.66V621.641V643.091L399.737 660.965L404.399 692.246L402.068 707.44L395.075 725.314L374.098 754.808L343.797 788.77L326.316 813.794C324.762 820.348 321.654 834.172 321.654 837.031C321.654 840.606 316.992 867.419 314.662 871.887C312.797 875.462 306.115 886.485 303.008 891.549L286.692 908.53H321.654L340.301 912.999L383.421 905.849L439.361 883.506L454.511 871.887C458.008 866.227 465.233 854.549 466.165 853.119C467.098 851.689 486.754 826.307 496.466 813.794L540.752 760.17L594.361 709.227L636.316 681.521L671.278 660.072L688.759 653.815C695.752 647.559 710.203 634.69 712.068 633.26C713.932 631.83 715.952 629.089 716.729 627.897L719.06 616.279L747.03 585.891C757.519 578.742 778.729 563.906 779.662 561.761C780.594 559.616 787.82 547.759 791.316 542.098L800.639 503.668L806.466 468.812L809.962 417.869L806.466 373.182L820.451 343.689L830.94 311.514L839.098 279.34C842.206 268.615 848.421 246.629 848.421 244.484V223.928L839.098 196.222L833.271 164.048L828.609 126.511V120.255L812.293 105.061L807.632 97.0175L828.609 112.211V81.824L836.767 64.843V84.5052V116.68C836.767 119.54 841.429 142.896 843.759 154.217L851.917 185.497L864.737 214.991L877.556 204.266L896.203 180.135L902.03 164.048L909.023 140.811V129.192L913.684 136.342L926.504 113.999L953.308 78.2491L956.805 48.7558L960.301 74.6741L976.617 64.843L960.301 81.824L953.308 91.6551L933.496 123.83C929.612 130.682 921.609 144.743 920.677 146.173C919.511 147.961 909.023 171.198 909.023 172.985C909.023 174.415 904.361 186.093 902.03 191.754L896.203 208.735L882.218 244.484L864.737 279.34L846.09 341.901L839.098 383.907L834.436 420.55V450.044L881.053 423.231L947.481 392.844L974.286 374.97L991.767 350.839L998.759 321.345L1008.08 297.215L1012.74 265.934V249.847V226.609L1008.08 204.266L998.759 185.497L994.098 172.985L988.271 161.367L998.759 172.985L1008.08 188.179L1018.57 206.947L1023.23 229.291V244.484L1036.05 234.653C1034.11 239.717 1029.99 249.847 1029.06 249.847C1028.13 249.847 1024.79 256.401 1023.23 259.678L1020.9 279.34V306.152L1018.57 336.539L1008.08 362.457L995.263 383.907L1029.06 376.757L1061.69 364.245L1093.16 345.476L1096.65 330.283L1100.15 341.901L1135.11 316.877L1163.08 293.64L1170.08 281.127L1166.58 297.215L1158.42 306.152C1146.77 314.493 1123.23 331.713 1122.29 333.858C1121.36 336.003 1100.15 350.839 1089.66 357.989L1041.88 383.907L1001.09 399.101C985.551 405.357 953.774 417.869 950.977 417.869C948.18 417.869 921.842 433.36 909.023 441.106L864.737 470.599L842.594 508.136L834.436 542.098L829.774 573.379C819.286 585.891 797.609 611.452 794.812 613.597C792.015 615.742 773.446 632.366 764.511 640.409H809.962L851.917 650.241L906.692 653.815C930.388 652.624 978.248 650.241 980.113 650.241C981.977 650.241 1010.41 644.878 1024.4 642.197L1055.86 623.428C1072.96 617.172 1108.08 604.481 1111.8 603.766C1115.53 603.051 1177.07 584.998 1207.37 576.06L1256.32 554.611C1268.75 543.29 1294.31 520.291 1297.11 518.861C1299.9 517.431 1312.26 505.157 1318.08 499.199L1365.86 469.706L1375.19 458.087L1382.18 442.894C1381.4 431.871 1380.32 409.11 1382.18 406.25C1384.05 403.39 1389.95 382.417 1392.67 372.288L1408.98 334.751L1418.31 305.258L1415.98 282.021V265.04L1401.99 253.421L1418.31 259.678L1421.8 233.759L1426.47 213.203V187.285L1418.31 179.241L1429.96 184.604L1442.78 163.154L1435.79 187.285L1432.29 202.478V221.247V243.59L1435.79 248.953L1449.77 245.378L1470.75 228.397L1475.41 207.841V217.672L1495.23 207.841L1480.08 228.397L1461.43 248.953L1446.28 259.678L1432.29 267.721V295.427C1432.29 296.321 1434.62 314.196 1432.29 316.877C1430.43 319.022 1427.63 328.495 1426.47 332.964L1415.98 361.564C1413.65 370.203 1408.98 388.018 1408.98 390.163C1408.98 392.308 1406.65 409.527 1405.49 417.869V437.531L1389.17 467.918L1361.2 489.368L1325.08 521.542L1368.2 502.774L1412.48 477.749L1415.98 462.556L1418.31 475.962L1459.1 444.681L1495.23 432.169L1526.69 417.869L1544.17 396.419V353.52V311.514L1563.98 276.659L1588.46 256.996L1623.42 237.334L1658.38 207.841L1695.68 173.879L1706.17 158.685L1713.16 130.98V95.2301L1709.66 55.0119L1699.17 41.6059L1691.02 32.6685H1666.54L1691.02 28.1998L1685.19 12.1125L1699.17 25.5186L1706.17 38.0309L1718.98 55.0119L1725.98 83.6115V106.849L1728.31 116.68L1748.12 106.849L1730.64 131.873C1729.09 141.704 1725.28 161.724 1722.48 163.154C1719.68 164.584 1708.11 181.625 1702.67 189.966L1672.37 221.247L1631.58 253.421C1622.26 262.359 1603.38 280.591 1602.44 282.021C1601.51 283.451 1588.85 302.279 1582.63 311.514V332.964V349.945L1597.78 340.114L1623.42 311.514L1643.23 295.427L1672.37 285.596L1688.68 282.021L1702.67 265.04L1713.16 253.421C1719.37 250.144 1732.27 243.59 1734.14 243.59C1736 243.59 1755.11 237.036 1764.44 233.759L1799.4 228.397L1807.56 207.841V223.928L1860 200.691L1805.23 231.972L1780.75 237.334L1753.95 243.59C1744.24 247.761 1724.35 256.281 1722.48 256.996C1720.62 257.711 1710.83 268.019 1706.17 273.084L1702.67 282.021L1716.65 285.596L1742.29 282.021L1763.27 278.446H1785.41L1821.54 261.465L1807.56 276.659L1860 261.465L1818.05 278.446L1799.4 285.596L1778.42 284.702L1753.95 285.596L1729.47 293.64L1706.17 298.108H1681.69L1658.38 305.258L1631.58 324.92L1604.77 350.839L1595.45 378.545L1587.29 403.569L1567.48 426.806C1555.05 433.658 1529.49 447.899 1526.69 450.044C1523.2 452.725 1508.05 458.087 1504.55 458.087C1501.75 458.087 1476.97 471.195 1464.92 477.749L1432.29 502.774L1418.31 521.542L1355.38 549.248L1386.84 548.355L1418.31 541.205H1450.94H1485.9H1526.69L1551.17 534.055H1572.14L1596.62 523.33L1629.25 504.561L1652.56 487.58L1664.21 475.962L1681.69 469.706L1711.99 466.131L1736.47 455.406L1750.45 437.531L1763.27 426.806L1783.08 417.869V406.25L1788.91 415.188L1823.87 406.25L1794.74 420.55L1783.08 426.806L1763.27 437.531L1758.61 450.044L1741.13 473.281L1715.49 480.431L1693.35 484.899L1679.36 485.793L1664.21 496.518L1660.71 506.349L1688.68 509.03L1706.17 513.499L1732.97 506.349L1715.49 518.861L1729.47 521.542L1753.95 523.33H1770.26L1792.41 517.074L1799.4 513.499L1785.41 526.905L1750.45 530.48H1721.32L1706.17 526.905L1681.69 518.861H1664.21L1646.73 523.33L1623.42 534.055L1597.78 545.673L1575.64 554.611L1534.85 559.079H1499.89H1475.41L1439.29 566.229L1410.15 576.954C1395.78 580.529 1365.86 588.215 1361.2 590.36C1356.54 592.505 1324.3 597.212 1308.76 599.298L1256.32 603.766C1248.55 607.639 1232.31 615.742 1229.51 617.172C1226.02 618.96 1196.88 627.897 1192.22 629.685C1187.56 631.472 1156.09 642.197 1152.59 642.197C1149.1 642.197 1094.32 660.965 1090.83 661.859C1088.03 662.574 1066.35 671.094 1055.86 675.265C1048.1 678.542 1031.39 685.454 1026.73 686.884C1020.9 688.671 991.767 691.352 988.271 691.352H940.489C936.992 691.352 900.865 686.884 897.368 686.884C894.571 686.884 860.464 685.692 843.759 685.096C832.494 683.607 809.263 680.628 806.466 680.628C802.97 680.628 776.165 683.309 773.835 683.309C771.97 683.309 753.634 690.459 744.699 694.034L716.729 709.227L693.421 723.527C683.709 730.975 663.586 746.764 660.789 750.339C657.992 753.914 644.085 767.32 637.481 773.576L610.677 805.751C606.792 812.603 598.09 826.843 594.361 828.988C590.632 831.133 574.937 845.969 567.556 853.119L560.564 862.95L594.361 857.587C609.511 854.013 640.278 846.863 642.143 846.863H667.782C675.551 845.373 691.556 842.215 693.421 841.5C695.286 840.785 713.622 841.202 722.556 841.5L738.872 835.244C745.088 832.563 758.917 827.558 764.511 828.988C771.504 830.775 797.143 831.669 802.97 833.457C807.632 834.887 825.113 839.415 833.271 841.5L857.744 850.438L871.729 865.631L893.872 871.887L934.662 879.931C947.87 878.441 975.451 875.462 980.113 875.462C985.94 875.462 1017.41 869.206 1020.9 867.419C1023.7 865.989 1047.71 854.31 1059.36 848.65C1071.4 842.692 1095.72 830.418 1096.65 828.988C1097.59 827.558 1117.24 818.263 1126.95 813.794L1161.92 795.026C1169.69 790.855 1185.92 781.799 1188.72 778.939C1191.52 776.079 1204.65 766.426 1210.86 761.958L1236.5 740.508L1246.99 724.421L1256.32 701.184V719.058L1302.93 696.715L1264.47 724.421L1243.5 747.658L1230.68 760.17L1252.82 754.808L1210.86 776.257L1192.22 795.026L1168.91 819.157H1215.53L1256.32 804.857L1302.93 792.345L1330.9 778.939L1341.39 760.17V776.257L1368.2 752.127L1391.5 726.208L1404.32 713.696L1410.15 693.14L1413.65 708.333L1443.95 696.715L1448.61 682.415L1452.11 693.14H1490.56L1452.11 701.184L1425.3 713.696L1401.99 731.571L1379.85 756.595L1362.37 776.257L1349.55 792.345C1337.89 798.601 1313.42 811.649 1308.76 813.794C1302.93 816.476 1280.79 823.625 1276.13 826.307C1272.4 828.452 1245.83 834.35 1233.01 837.031C1221.35 837.329 1197.11 838.104 1193.38 838.819C1189.65 839.534 1163.08 839.117 1150.26 838.819L1110.64 862.056C1103.65 868.312 1089.2 881.361 1087.33 883.506C1085.47 885.651 1076.45 894.529 1072.18 898.699L1091.99 910.318L1116.47 916.574C1119.26 917.289 1143.27 921.043 1154.92 922.83L1188.72 927.299H1210.86L1264.47 922.83H1272.63L1285.45 904.956V919.255H1308.76H1341.39L1364.7 902.274L1355.38 919.255H1374.02L1404.32 925.511L1357.71 924.618L1341.39 925.511L1318.08 927.299L1276.13 931.768L1243.5 938.918L1202.71 942.492H1161.92L1124.62 938.918L1075.68 931.768L1044.21 919.255L1018.57 913.893H954.474C941.266 911.807 914.383 907.637 912.519 907.637C910.654 907.637 877.556 901.678 861.241 898.699L802.97 883.506L762.18 875.462H722.556L679.436 883.506L620 889.762L576.88 898.699L546.579 908.53H512.782L476.654 937.13C463.835 941.897 437.496 951.609 434.699 952.324C431.902 953.039 384.586 962.155 361.278 966.623L303.008 970.198L219.098 973.773H148.008L106.053 977.348C93.2331 981.817 67.1278 990.933 65.2632 991.648C62.9323 992.542 23.3083 1013.1 20.9774 1013.99C19.1128 1014.71 6.21554 1017.27 0 1018.46Z" fill="white"/>
<path d="M41.9549 938.024C39.1579 938.739 12.8195 949.642 0 955.005V1018.46C6.21554 1017.27 19.1128 1014.71 20.9774 1013.99C23.3083 1013.1 62.9323 992.542 65.2632 991.648C67.1278 990.933 93.2331 981.817 106.053 977.348L148.008 973.773H219.098L303.008 970.198L361.278 966.623C384.586 962.155 431.902 953.039 434.699 952.324C437.496 951.609 463.835 941.897 476.654 937.13L512.782 908.53H546.579L576.88 898.699L620 889.762L679.436 883.506L722.556 875.462H762.18L802.97 883.506L861.241 898.699C877.556 901.678 910.654 907.637 912.519 907.637C914.383 907.637 941.266 911.807 954.474 913.893H1018.57L1044.21 919.255L1075.68 931.768L1124.62 938.918L1161.92 942.492H1202.71L1243.5 938.918L1276.13 931.768L1318.08 927.299L1341.39 925.511L1357.71 924.618L1404.32 925.511L1374.02 919.255H1355.38L1364.7 902.274L1341.39 919.255H1308.76H1285.45V904.955L1272.63 922.83H1264.47L1210.86 927.299H1188.72L1154.92 922.83C1143.27 921.043 1119.26 917.289 1116.47 916.574M41.9549 938.024C44.7519 937.309 80.4135 928.193 97.8947 923.724M41.9549 938.024L97.8947 923.724M97.8947 923.724L153.835 916.574L180.639 902.274L224.925 891.549L266.88 862.056L276.203 813.794V797.707L279.699 783.407L308.835 756.595L335.639 725.314L360.113 707.44L367.105 660.965L363.609 619.854L348.459 571.592L323.985 523.33L296.015 479.537V457.193L311.165 430.381L337.97 401.782L361.278 362.457L376.429 296.321C374.486 278.148 370.602 241.445 370.602 240.015M370.602 240.015C370.602 238.585 370.602 207.841 370.602 192.647M370.602 240.015V192.647M370.602 192.647L383.421 150.642V128.298L388.083 147.067L405.564 134.554L391.579 156.004L388.083 170.304L383.421 192.647V230.184L388.083 272.19V288.277C388.471 295.427 389.015 309.906 388.083 310.621C387.15 311.336 384.586 326.41 383.421 333.858L376.429 360.67L365.94 383.907L390.414 357.095L424.211 328.495L444.023 307.939L469.662 267.721L485.977 235.547L489.474 198.01L494.135 232.866L489.474 250.74L474.323 283.808L439.361 333.858L388.083 387.482C379.148 397.015 361.278 416.439 361.278 417.869C361.278 419.299 341.078 440.51 330.977 450.937L323.985 461.662V471.493L335.639 488.474L353.12 516.18L367.105 535.842L374.098 552.823L377.594 558.186L391.579 543.886L419.549 525.117L442.857 512.605L478.985 490.262L501.128 471.493L546.579 450.937L553.571 445.575L557.068 431.275L559.399 441.106L588.534 416.082L607.18 389.269L623.496 362.457C624.662 361.266 626.992 358.167 626.992 355.307M626.992 355.307C626.992 352.447 626.992 344.583 626.992 341.008M626.992 355.307V341.008M626.992 341.008L630.489 348.158L653.797 331.177L633.985 355.307L623.496 373.182L613.008 399.101L588.534 434.85L559.399 456.3L561.729 458.981L604.85 456.3L616.504 445.575L613.008 458.981H630.489L649.135 456.3L671.278 448.256L653.797 458.981L638.647 462.556L610.677 465.237H561.729L541.917 468.812L518.609 480.431L483.647 501.88L452.18 529.586L419.549 561.761L404.399 581.423L396.241 604.66V621.641V643.091L399.737 660.965L404.399 692.246L402.068 707.44L395.075 725.314L374.098 754.808L343.797 788.77L326.316 813.794C324.762 820.348 321.654 834.172 321.654 837.032C321.654 840.606 316.992 867.419 314.662 871.887C312.797 875.462 306.115 886.485 303.008 891.549L286.692 908.53H321.654L340.301 912.999L383.421 905.849L439.361 883.506L454.511 871.887C458.008 866.227 465.233 854.549 466.165 853.119C467.098 851.689 486.754 826.307 496.466 813.794L540.752 760.17L594.361 709.227L636.316 681.521L671.278 660.072L688.759 653.815C695.752 647.559 710.203 634.69 712.068 633.26C713.932 631.83 715.952 629.089 716.729 627.897L719.06 616.279L747.03 585.891C757.519 578.742 778.729 563.906 779.662 561.761C780.594 559.616 787.82 547.759 791.316 542.098L800.639 503.668L806.466 468.812L809.962 417.869L806.466 373.182L820.451 343.689L830.94 311.514L839.098 279.34C842.205 268.615 848.421 246.629 848.421 244.484M848.421 244.484C848.421 242.339 848.421 229.886 848.421 223.928M848.421 244.484V223.928M848.421 223.928L839.098 196.222L833.271 164.048L828.609 126.511V120.255L812.293 105.061L807.632 97.0175L828.609 112.211V81.824L836.767 64.843V84.5052M836.767 84.5052C836.767 94.0384 836.767 113.82 836.767 116.68M836.767 84.5052V116.68M836.767 116.68C836.767 119.54 841.429 142.896 843.759 154.217L851.917 185.497L864.737 214.991L877.556 204.266L896.203 180.135L902.03 164.048L909.023 140.811V129.192L913.684 136.342L926.504 113.999L953.308 78.2491L956.805 48.7558L960.301 74.6741L976.617 64.843L960.301 81.824L953.308 91.6551L933.496 123.83C929.612 130.682 921.609 144.743 920.677 146.173C919.511 147.961 909.023 171.198 909.023 172.985C909.023 174.415 904.361 186.093 902.03 191.754L896.203 208.735L882.218 244.484L864.737 279.34L846.09 341.901L839.098 383.907L834.436 420.55V450.044L881.053 423.231L947.481 392.844L974.286 374.97L991.767 350.839L998.759 321.345L1008.08 297.215L1012.74 265.934V249.847V226.609L1008.08 204.266L998.759 185.497L994.098 172.985L988.271 161.367L998.759 172.985L1008.08 188.179L1018.57 206.947L1023.23 229.291V244.484L1036.05 234.653C1034.11 239.717 1029.99 249.847 1029.06 249.847C1028.13 249.847 1024.79 256.401 1023.23 259.678L1020.9 279.34V306.152L1018.57 336.539L1008.08 362.457L995.263 383.907L1029.06 376.757L1061.69 364.245L1093.16 345.476L1096.65 330.283L1100.15 341.901L1135.11 316.877L1163.08 293.64L1170.08 281.127L1166.58 297.215L1158.42 306.152C1146.77 314.493 1123.23 331.713 1122.29 333.858C1121.36 336.003 1100.15 350.839 1089.66 357.989L1041.88 383.907L1001.09 399.101C985.551 405.357 953.774 417.869 950.977 417.869C948.18 417.869 921.842 433.36 909.023 441.106L864.737 470.599L842.594 508.136L834.436 542.098L829.774 573.379C819.286 585.892 797.609 611.452 794.812 613.597C792.015 615.742 773.446 632.366 764.511 640.409H809.962L851.917 650.241L906.692 653.815C930.388 652.624 978.248 650.241 980.113 650.241C981.977 650.241 1010.41 644.878 1024.4 642.197L1055.86 623.428C1072.96 617.172 1108.08 604.481 1111.8 603.766C1115.53 603.051 1177.07 584.998 1207.37 576.06L1256.32 554.611C1268.75 543.29 1294.31 520.291 1297.11 518.861C1299.9 517.431 1312.26 505.157 1318.08 499.199L1365.86 469.706L1375.19 458.087L1382.18 442.894C1381.4 431.871 1380.32 409.11 1382.18 406.25C1384.05 403.39 1389.95 382.417 1392.67 372.288L1408.98 334.751L1418.31 305.258L1415.98 282.021V265.04L1401.99 253.421L1418.31 259.678L1421.8 233.759L1426.47 213.203V187.285L1418.31 179.241L1429.96 184.604L1442.78 163.154L1435.79 187.285L1432.29 202.478M1432.29 202.478C1432.29 207.841 1432.29 219.102 1432.29 221.247M1432.29 202.478V221.247M1432.29 221.247C1432.29 223.392 1432.29 237.036 1432.29 243.59M1432.29 221.247V243.59M1432.29 243.59L1435.79 248.953L1449.77 245.378L1470.75 228.397L1475.41 207.841V217.672L1495.23 207.841L1480.08 228.397L1461.43 248.953L1446.28 259.678L1432.29 267.721M1432.29 267.721C1432.29 276.659 1432.29 294.712 1432.29 295.427M1432.29 267.721V295.427M1432.29 295.427C1432.29 296.321 1434.62 314.196 1432.29 316.877C1430.43 319.022 1427.63 328.495 1426.47 332.964L1415.98 361.564C1413.65 370.203 1408.98 388.018 1408.98 390.163C1408.98 392.308 1406.65 409.527 1405.49 417.869V437.531L1389.17 467.918L1361.2 489.368L1325.08 521.542L1368.2 502.774L1412.48 477.749L1415.98 462.556L1418.31 475.962L1459.1 444.681L1495.23 432.169L1526.69 417.869L1544.17 396.419V353.52V311.514L1563.99 276.659L1588.46 256.996L1623.42 237.334L1658.38 207.841L1695.68 173.879L1706.17 158.685L1713.16 130.98V95.2301L1709.66 55.0119L1699.17 41.6059L1691.02 32.6685H1666.54L1691.02 28.1998L1685.19 12.1125L1699.17 25.5186L1706.17 38.0309L1718.99 55.0119L1725.98 83.6115V106.849L1728.31 116.68L1748.12 106.849L1730.64 131.873C1729.09 141.704 1725.28 161.724 1722.48 163.154C1719.68 164.584 1708.11 181.625 1702.67 189.966L1672.37 221.247L1631.58 253.421C1622.26 262.359 1603.38 280.591 1602.44 282.021C1601.51 283.451 1588.85 302.279 1582.63 311.514V332.964V349.945L1597.78 340.114L1623.42 311.514L1643.23 295.427L1672.37 285.596L1688.68 282.021L1702.67 265.04L1713.16 253.421C1719.37 250.144 1732.27 243.59 1734.14 243.59C1736 243.59 1755.11 237.036 1764.44 233.759L1799.4 228.397L1807.56 207.841V223.928L1860 200.691L1805.23 231.972L1780.75 237.334L1753.95 243.59C1744.24 247.761 1724.35 256.281 1722.48 256.996C1720.62 257.711 1710.83 268.019 1706.17 273.084L1702.67 282.021L1716.65 285.596L1742.29 282.021L1763.27 278.446H1785.41L1821.54 261.465L1807.56 276.659L1860 261.465L1818.05 278.446L1799.4 285.596L1778.42 284.702L1753.95 285.596L1729.47 293.64L1706.17 298.108H1681.69L1658.38 305.258L1631.58 324.92L1604.77 350.839L1595.45 378.545L1587.29 403.569L1567.48 426.806C1555.05 433.658 1529.49 447.899 1526.69 450.044C1523.2 452.725 1508.05 458.087 1504.55 458.087C1501.75 458.087 1476.97 471.195 1464.92 477.749L1432.29 502.774L1418.31 521.542L1355.38 549.248L1386.84 548.355L1418.31 541.205H1450.94H1485.9H1526.69L1551.17 534.055H1572.14L1596.62 523.33L1629.25 504.561L1652.56 487.58L1664.21 475.962L1681.69 469.706L1711.99 466.131L1736.47 455.406L1750.45 437.531L1763.27 426.806L1783.08 417.869V406.25L1788.91 415.188L1823.87 406.25L1794.74 420.55L1783.08 426.806L1763.27 437.531L1758.61 450.044L1741.13 473.281L1715.49 480.431L1693.35 484.899L1679.36 485.793L1664.21 496.518L1660.71 506.349L1688.68 509.03L1706.17 513.499L1732.97 506.349L1715.49 518.861L1729.47 521.542L1753.95 523.33H1770.26L1792.41 517.074L1799.4 513.499L1785.41 526.905L1750.45 530.48H1721.32L1706.17 526.905L1681.69 518.861H1664.21L1646.73 523.33L1623.42 534.055L1597.78 545.673L1575.64 554.611L1534.85 559.079H1499.89H1475.41L1439.29 566.229L1410.15 576.954C1395.78 580.529 1365.86 588.215 1361.2 590.36C1356.54 592.505 1324.3 597.212 1308.76 599.298L1256.32 603.766C1248.55 607.639 1232.31 615.742 1229.51 617.172C1226.02 618.96 1196.88 627.897 1192.22 629.685C1187.56 631.472 1156.09 642.197 1152.59 642.197C1149.1 642.197 1094.32 660.965 1090.83 661.859C1088.03 662.574 1066.35 671.094 1055.86 675.265C1048.1 678.542 1031.39 685.454 1026.73 686.884C1020.9 688.671 991.767 691.352 988.271 691.352M988.271 691.352C984.774 691.352 943.985 691.352 940.489 691.352M988.271 691.352H940.489M940.489 691.352C936.992 691.352 900.865 686.884 897.368 686.884C894.571 686.884 860.464 685.692 843.759 685.096C832.494 683.607 809.263 680.628 806.466 680.628C802.97 680.628 776.165 683.309 773.835 683.309C771.97 683.309 753.634 690.459 744.699 694.034L716.729 709.227L693.421 723.527C683.709 730.975 663.586 746.764 660.789 750.339C657.992 753.914 644.085 767.32 637.481 773.576L610.677 805.751C606.792 812.603 598.09 826.843 594.361 828.988C590.632 831.133 574.937 845.969 567.556 853.119L560.564 862.95L594.361 857.587C609.511 854.013 640.278 846.863 642.143 846.863M642.143 846.863C644.008 846.863 660.013 846.863 667.782 846.863M642.143 846.863H667.782M667.782 846.863C675.551 845.373 691.556 842.215 693.421 841.5C695.286 840.785 713.622 841.202 722.556 841.5L738.872 835.244C745.088 832.563 758.917 827.558 764.511 828.988C771.504 830.775 797.143 831.669 802.97 833.457C807.632 834.887 825.113 839.415 833.271 841.5L857.744 850.438L871.729 865.631L893.872 871.887L934.662 879.931C947.87 878.441 975.451 875.462 980.113 875.462C985.94 875.462 1017.41 869.206 1020.9 867.419C1023.7 865.989 1047.71 854.31 1059.36 848.65C1071.4 842.692 1095.72 830.418 1096.65 828.988C1097.59 827.558 1117.24 818.263 1126.95 813.794L1161.92 795.026C1169.69 790.855 1185.92 781.799 1188.72 778.939C1191.52 776.079 1204.65 766.426 1210.86 761.958L1236.5 740.508L1246.99 724.421L1256.32 701.184V719.058L1302.93 696.715L1264.47 724.421L1243.5 747.658L1230.68 760.17L1252.82 754.808L1210.86 776.257L1192.22 795.026L1168.91 819.157H1215.53L1256.32 804.857L1302.93 792.345L1330.9 778.939L1341.39 760.17V776.257L1368.2 752.127L1391.5 726.208L1404.32 713.696L1410.15 693.14L1413.65 708.333L1443.95 696.715L1448.61 682.415L1452.11 693.14H1490.56L1452.11 701.184L1425.3 713.696L1401.99 731.571L1379.85 756.595L1362.37 776.257L1349.55 792.345C1337.89 798.601 1313.42 811.649 1308.76 813.794C1302.93 816.476 1280.79 823.625 1276.13 826.307C1272.4 828.452 1245.83 834.35 1233.01 837.032C1221.35 837.329 1197.11 838.104 1193.38 838.819C1189.65 839.534 1163.08 839.117 1150.26 838.819L1110.64 862.056C1103.65 868.312 1089.2 881.361 1087.33 883.506C1085.47 885.651 1076.45 894.529 1072.18 898.699L1091.99 910.318M1091.99 910.318C1098.99 912.105 1113.67 915.859 1116.47 916.574M1091.99 910.318L1116.47 916.574" stroke="white"/>
<path d="M795.908 89.6783L812.752 83.9587L839.818 91.971L822.604 100.174L795.908 89.6783Z" fill="#6957BA" stroke="#6957BA"/>
<path d="M858.213 52.0932L858.776 69.2662L842.636 91.6475L839.725 73.3828L858.213 52.0932Z" fill="#6957BA" stroke="#6957BA"/>
<path d="M772.552 50.5517L787.034 60.6101L795.604 86.571L778.789 77.6349L772.552 50.5517Z" fill="#6957BA" stroke="#6957BA"/>
<path d="M803.765 40.5666L818.247 50.625L826.818 76.5859L810.003 67.6498L803.765 40.5666Z" fill="#6957BA" stroke="#6957BA"/>
<path d="M780.131 94.1815L797.39 98.6104L815.023 119.924L796 117.344L780.131 94.1815Z" fill="#6957BA" stroke="#6957BA"/>
<path d="M822.753 141.825L839.559 136.003L866.677 143.852L849.517 152.159L822.753 141.825Z" fill="#6957BA" stroke="#6957BA"/>
<path d="M817.71 138.745L819.387 121.639L838.312 101.377L838.823 119.849L817.71 138.745Z" fill="#6957BA" stroke="#6957BA"/>
<path d="M861.655 76.1347L871.389 90.5336L869.642 117.716L857.311 103.555L861.655 76.1347Z" fill="#6957BA" stroke="#6957BA"/>
<path d="M844.349 101.71L859.264 111.165L868.977 136.751L851.781 128.513L844.349 101.71Z" fill="#6957BA" stroke="#6957BA"/>
<path d="M960.672 47.2535L971.429 60.9701L971.665 88.2074L958.335 74.902L960.672 47.2535Z" fill="#6957BA" stroke="#6957BA"/>
<path d="M1016.75 93.027L999.895 98.7311L972.838 90.694L990.06 82.5067L1016.75 93.027Z" fill="#6957BA" stroke="#6957BA"/>
<path d="M992.392 14.0166L986.799 30.3342L963.66 46.0359L967.436 27.9182L992.392 14.0166Z" fill="#6957BA" stroke="#6957BA"/>
<path d="M1011.72 39.6204L1006.13 55.938L982.986 71.6397L986.762 53.522L1011.72 39.6204Z" fill="#6957BA" stroke="#6957BA"/>
<path d="M951.442 34.1476L952.267 51.3109L936.471 73.918L933.281 55.6964L951.442 34.1476Z" fill="#6957BA" stroke="#6957BA"/>
<path d="M917.101 87.622L927.948 101.273L928.363 128.509L914.945 115.284L917.101 87.622Z" fill="#6957BA" stroke="#6957BA"/>
<path d="M918.63 82.0681L936.09 78.4374L961.889 89.6687L943.736 95.7183L918.63 82.0681Z" fill="#6957BA" stroke="#6957BA"/>
<path d="M993.965 103.445L982.631 116.725L955.162 123.345L965.476 107.756L993.965 103.445Z" fill="#6957BA" stroke="#6957BA"/>
<path d="M963.383 95.3044L958.518 111.836L936.095 128.473L939.065 110.217L963.383 95.3044Z" fill="#6957BA" stroke="#6957BA"/>
<path d="M1154.42 279.272L1165.18 292.989L1165.42 320.226L1152.08 306.921L1154.42 279.272Z" fill="#6957BA" stroke="#6957BA"/>
<path d="M1210.49 325.046L1193.65 330.75L1166.59 322.713L1183.81 314.526L1210.49 325.046Z" fill="#6957BA" stroke="#6957BA"/>
<path d="M1186.14 246.036L1180.55 262.353L1157.41 278.055L1161.19 259.937L1186.14 246.036Z" fill="#6957BA" stroke="#6957BA"/>
<path d="M1205.47 271.639L1199.88 287.957L1176.74 303.659L1180.51 285.541L1205.47 271.639Z" fill="#6957BA" stroke="#6957BA"/>
<path d="M1145.19 266.167L1146.02 283.33L1130.22 305.937L1127.03 287.715L1145.19 266.167Z" fill="#6957BA" stroke="#6957BA"/>
<path d="M1110.85 319.641L1121.7 333.292L1122.11 360.528L1108.7 347.303L1110.85 319.641Z" fill="#6957BA" stroke="#6957BA"/>
<path d="M1112.38 314.087L1129.84 310.456L1155.64 321.688L1137.49 327.737L1112.38 314.087Z" fill="#6957BA" stroke="#6957BA"/>
<path d="M1187.72 335.464L1176.38 348.744L1148.91 355.364L1159.23 339.775L1187.72 335.464Z" fill="#6957BA" stroke="#6957BA"/>
<path d="M1157.13 327.323L1152.27 343.855L1129.84 360.492L1132.81 342.236L1157.13 327.323Z" fill="#6957BA" stroke="#6957BA"/>
<path d="M1059.36 332.562L1068.81 341.769L1071.81 362.078L1060.48 353.425L1059.36 332.562Z" fill="#6957BA" stroke="#6957BA"/>
<path d="M1105.96 361.351L1093.97 367.226L1072.94 363.822L1084.95 356.058L1105.96 361.351Z" fill="#6957BA" stroke="#6957BA"/>
<path d="M1079.59 304.708L1077.11 317.425L1061.46 331.366L1062.4 317.48L1079.59 304.708Z" fill="#6957BA" stroke="#6957BA"/>
<path d="M1096.67 321.966L1094.19 334.684L1078.54 348.625L1079.48 334.738L1096.67 321.966Z" fill="#6957BA" stroke="#6957BA"/>
<path d="M1051.11 323.664L1053.5 336.397L1044.06 354.788L1039.78 341.492L1051.11 323.664Z" fill="#6957BA" stroke="#6957BA"/>
<path d="M1031.02 366.876L1040.53 376.026L1043.66 396.317L1032.28 387.732L1031.02 366.876Z" fill="#6957BA" stroke="#6957BA"/>
<path d="M1031.58 362.584L1044.24 358.198L1064.66 364.107L1051.74 370.365L1031.58 362.584Z" fill="#6957BA" stroke="#6957BA"/>
<path d="M1090.04 371.314L1082.95 382.315L1063.13 389.891L1069.22 377.265L1090.04 371.314Z" fill="#6957BA" stroke="#6957BA"/>
<path d="M1066.36 368.171L1064.45 380.978L1049.43 395.548L1049.76 381.636L1066.36 368.171Z" fill="#6957BA" stroke="#6957BA"/>
<path d="M977.383 183.262L995.211 184.349L1016.85 201.923L997.668 202.981L977.383 183.262Z" fill="#6957BA" stroke="#6957BA"/>
<path d="M1050.02 172.168L1043.54 188.18L1019.57 202.688L1024.33 184.786L1050.02 172.168Z" fill="#6957BA" stroke="#6957BA"/>
<path d="M971.836 138.462L981.061 153.174L978.37 180.289L966.54 165.73L971.836 138.462Z" fill="#6957BA" stroke="#6957BA"/>
<path d="M1004.62 141.041L1013.85 155.753L1011.15 182.868L999.325 168.309L1004.62 141.041Z" fill="#6957BA" stroke="#6957BA"/>
<path d="M961.033 181.458L975.107 192.039L982.647 218.294L966.197 208.75L961.033 181.458Z" fill="#6957BA" stroke="#6957BA"/>
<path d="M980.835 241.357L998.669 242.336L1020.42 259.778L1001.25 260.952L980.835 241.357Z" fill="#6957BA" stroke="#6957BA"/>
<path d="M977.451 236.623L985.962 221.517L1011.63 210.009L1004.57 227.196L977.451 236.623Z" fill="#6957BA" stroke="#6957BA"/>
<path d="M1043.39 195.579L1046.48 212.501L1033.81 236.858L1028.23 219.175L1043.39 195.579Z" fill="#6957BA" stroke="#6957BA"/>
<path d="M1017.05 212.591L1026.92 226.912L1025.43 254.112L1012.97 240.051L1017.05 212.591Z" fill="#6957BA" stroke="#6957BA"/>
<path d="M776.611 367.211L786.507 362.846L803.355 366.679L793.371 372.625L776.611 367.211Z" fill="#6957BA" stroke="#6957BA"/>
<path d="M812.313 340.711L813.598 351.512L805.046 366.348L802.276 354.965L812.313 340.711Z" fill="#6957BA" stroke="#6957BA"/>
<path d="M760.299 343.596L769.631 349.285L776.255 365.266L765.57 360.389L760.299 343.596Z" fill="#6957BA" stroke="#6957BA"/>
<path d="M778.672 335.896L788.004 341.585L794.628 357.565L783.943 352.689L778.672 335.896Z" fill="#6957BA" stroke="#6957BA"/>
<path d="M767.294 370.76L778 372.775L789.862 385.418L778.189 384.648L767.294 370.76Z" fill="#6957BA" stroke="#6957BA"/>
<path d="M795.753 398.876L805.621 394.45L822.491 398.176L812.546 404.186L795.753 398.876Z" fill="#6957BA" stroke="#6957BA"/>
<path d="M792.527 397.162L792.602 386.303L802.96 372.677L804.286 384.299L792.527 397.162Z" fill="#6957BA" stroke="#6957BA"/>
<path d="M815.722 355.712L822.415 364.352L822.852 381.567L814.597 373.195L815.722 355.712Z" fill="#6957BA" stroke="#6957BA"/>
<path d="M806.638 372.614L816.199 377.904L823.495 393.596L812.618 389.177L806.638 372.614Z" fill="#6957BA" stroke="#6957BA"/>
<path d="M611.115 335.529L625.698 345.45L634.532 371.33L617.627 362.552L611.115 335.529Z" fill="#6957BA" stroke="#6957BA"/>
<path d="M679 362.74L664.751 373.101L636.434 373.356L650.253 360.52L679 362.74Z" fill="#6957BA" stroke="#6957BA"/>
<path d="M630.83 294.59L630.658 311.77L613.576 333.495L611.448 315.131L630.83 294.59Z" fill="#6957BA" stroke="#6957BA"/>
<path d="M657.333 313.331L657.162 330.511L640.079 352.236L637.951 333.872L657.333 313.331Z" fill="#6957BA" stroke="#6957BA"/>
<path d="M598.179 325.742L604.39 341.851L596.486 368.007L587.688 351.581L598.179 325.742Z" fill="#6957BA" stroke="#6957BA"/>
<path d="M582.365 386.727L597.013 396.56L606.015 422.385L589.053 413.71L582.365 386.727Z" fill="#6957BA" stroke="#6957BA"/>
<path d="M582.066 380.989L597.551 372.425L625.679 375.581L610.298 386.652L582.066 380.989Z" fill="#6957BA" stroke="#6957BA"/>
<path d="M660.592 379.326L653.991 395.292L629.914 409.63L634.813 391.763L660.592 379.326Z" fill="#6957BA" stroke="#6957BA"/>
<path d="M628.883 380.513L629.473 397.685L613.369 420.09L610.429 401.83L628.883 380.513Z" fill="#6957BA" stroke="#6957BA"/>
<path d="M275.811 499.76L289.997 489.318L318.312 488.903L304.571 501.817L275.811 499.76Z" fill="#6957BA" stroke="#6957BA"/>
<path d="M323.011 445.51L329.057 461.678L320.889 487.758L312.258 471.25L323.011 445.51Z" fill="#6957BA" stroke="#6957BA"/>
<path d="M241.038 469.48L258.041 474.747L274.525 496.895L255.663 493.388L241.038 469.48Z" fill="#6957BA" stroke="#6957BA"/>
<path d="M267.523 450.714L284.526 455.981L301.01 478.129L282.148 474.623L267.523 450.714Z" fill="#6957BA" stroke="#6957BA"/>
<path d="M262.25 508.728L280.088 507.816L303.7 522.853L284.778 526.047L262.25 508.728Z" fill="#6957BA" stroke="#6957BA"/>
<path d="M318.081 541.389L332.198 530.862L360.51 530.275L346.854 543.271L318.081 541.389Z" fill="#6957BA" stroke="#6957BA"/>
<path d="M312.296 539.957L308.401 523.189L319.899 498.297L326.314 515.714L312.296 539.957Z" fill="#6957BA" stroke="#6957BA"/>
<path d="M334 467.349L347.884 478.159L354.956 504.534L338.678 494.721L334 467.349Z" fill="#6957BA" stroke="#6957BA"/>
<path d="M325.747 496.821L342.968 501.386L360.419 522.838L341.419 520.107L325.747 496.821Z" fill="#6957BA" stroke="#6957BA"/>
<path d="M248.99 718.885L266.849 719.276L289.208 735.992L270.089 737.797L248.99 718.885Z" fill="#6957BA" stroke="#6957BA"/>
<path d="M321.098 704.969L315.298 721.22L291.962 736.65L295.967 718.578L321.098 704.969Z" fill="#6957BA" stroke="#6957BA"/>
<path d="M241.559 674.338L251.397 688.678L249.85 715.876L237.417 701.79L241.559 674.338Z" fill="#6957BA" stroke="#6957BA"/>
<path d="M274.426 675.636L284.264 689.977L282.717 717.175L270.284 703.088L274.426 675.636Z" fill="#6957BA" stroke="#6957BA"/>
<path d="M232.577 717.72L247.086 727.743L255.725 753.683L238.887 744.788L232.577 717.72Z" fill="#6957BA" stroke="#6957BA"/>
<path d="M254.887 776.797L272.748 777.08L295.216 793.66L276.109 795.581L254.887 776.797Z" fill="#6957BA" stroke="#6957BA"/>
<path d="M251.306 772.199L259.174 756.774L284.335 744.275L278.01 761.723L251.306 772.199Z" fill="#6957BA" stroke="#6957BA"/>
<path d="M315.465 728.618L319.265 745.406L307.626 770.237L301.31 752.786L315.465 728.618Z" fill="#6957BA" stroke="#6957BA"/>
<path d="M289.858 746.643L300.323 760.567L299.982 787.804L286.936 774.24L289.858 746.643Z" fill="#6957BA" stroke="#6957BA"/>
<path d="M649.507 600.671L670.841 609.072L692.6 636.791L669.081 630.154L649.507 600.671Z" fill="#6957BA" stroke="#6957BA"/>
<path d="M740.379 618.167L728.453 632.8L695.709 638.72L706.036 621.354L740.379 618.167Z" fill="#6957BA" stroke="#6957BA"/>
<path d="M654.176 550.125L661.618 569.727L651.459 597.866L640.822 577.373L654.176 550.125Z" fill="#6957BA" stroke="#6957BA"/>
<path d="M693.264 566.2L700.706 585.802L690.547 613.941L679.909 593.449L693.264 566.2Z" fill="#6957BA" stroke="#6957BA"/>
<path d="M630.146 592.096L644.517 609.209L646.978 640.57L629.464 623.611L630.146 592.096Z" fill="#6957BA" stroke="#6957BA"/>
<path d="M638.917 664.698L660.287 672.986L682.218 700.609L658.678 694.101L638.917 664.698Z" fill="#6957BA" stroke="#6957BA"/>
<path d="M636.018 658.222L650.178 645.39L684.219 643.392L671.295 659.059L636.018 658.222Z" fill="#6957BA" stroke="#6957BA"/>
<path d="M726.395 640.717L725.836 660.213L704.276 681.331L702.014 660.007L726.395 640.717Z" fill="#6957BA" stroke="#6957BA"/>
<path d="M690.13 648.372L698.452 667.813L689.731 696.533L678.198 676.32L690.13 648.372Z" fill="#6957BA" stroke="#6957BA"/>
<path d="M515.579 951.097L493.172 970.495L447.167 980.288L468.694 957.533L515.579 951.097Z" fill="#6957BA" stroke="#6957BA"/>
<path d="M442.249 1043.27L431.405 1022.34L443.049 982.746L458.116 1003.32L442.249 1043.27Z" fill="#6957BA" stroke="#6957BA"/>
<path d="M574.009 982.677L546.037 980.745L517.85 954.736L548.734 953.572L574.009 982.677Z" fill="#6957BA" stroke="#6957BA"/>
<path d="M532.13 1017.86L504.158 1015.93L475.971 989.921L506.855 988.757L532.13 1017.86Z" fill="#6957BA" stroke="#6957BA"/>
<path d="M537.064 933.988L508.122 941.077L468.792 927.457L499.353 916.783L537.064 933.988Z" fill="#6957BA" stroke="#6957BA"/>
<path d="M444.25 905.881L421.96 925.378L375.97 935.412L397.355 912.567L444.25 905.881Z" fill="#6957BA" stroke="#6957BA"/>
<path d="M453.744 906.029L461.129 928.51L443.998 967.5L432.477 944.918L453.744 906.029Z" fill="#6957BA" stroke="#6957BA"/>
<path d="M423.014 1015.91L399.764 1005.12L386.613 970.061L413.692 978.667L423.014 1015.91Z" fill="#6957BA" stroke="#6957BA"/>
<path d="M434.582 971.491L406.3 970.623L376.585 945.915L407.645 943.606L434.582 971.491Z" fill="#6957BA" stroke="#6957BA"/>
<path d="M653.171 444.134L649.084 452.566L635.585 459.57L638.812 450.055L653.171 444.134Z" fill="#6957BA" stroke="#6957BA"/>
<path d="M644.672 481.575L637.539 475.25L634.646 460.74L643.11 466.608L644.672 481.575Z" fill="#6957BA" stroke="#6957BA"/>
<path d="M677.8 450.345L668.252 451.897L654.539 445.203L664.52 442.357L677.8 450.345Z" fill="#6957BA" stroke="#6957BA"/>
<path d="M669.979 465.737L660.43 467.289L646.717 460.595L656.699 457.75L669.979 465.737Z" fill="#6957BA" stroke="#6957BA"/>
<path d="M657.344 436.56L649.01 441.286L633.731 439.726L641.989 433.642L657.344 436.56Z" fill="#6957BA" stroke="#6957BA"/>
<path d="M621.973 434.264L617.941 442.721L604.488 449.806L607.653 440.272L621.973 434.264Z" fill="#6957BA" stroke="#6957BA"/>
<path d="M625.128 433.562L631.384 440.693L632.366 455.432L624.73 448.594L625.128 433.562Z" fill="#6957BA" stroke="#6957BA"/>
<path d="M633.681 473.709L624.182 471.845L613.887 460.855L624.276 461.664L633.681 473.709Z" fill="#6957BA" stroke="#6957BA"/>
<path d="M629.941 457.547L620.472 459.489L606.476 453.362L616.321 450.11L629.941 457.547Z" fill="#6957BA" stroke="#6957BA"/>
<path d="M469.036 215.324L483.619 225.246L492.453 251.125L475.548 242.347L469.036 215.324Z" fill="#6957BA" stroke="#6957BA"/>
<path d="M536.922 242.535L522.673 252.896L494.355 253.151L508.175 240.316L536.922 242.535Z" fill="#6957BA" stroke="#6957BA"/>
<path d="M488.751 174.385L488.58 191.566L471.498 213.29L469.369 194.926L488.751 174.385Z" fill="#6957BA" stroke="#6957BA"/>
<path d="M515.255 193.126L515.083 210.307L498.001 232.031L495.873 213.667L515.255 193.126Z" fill="#6957BA" stroke="#6957BA"/>
<path d="M456.101 205.537L462.311 221.647L454.408 247.803L445.61 231.376L456.101 205.537Z" fill="#6957BA" stroke="#6957BA"/>
<path d="M440.286 266.522L454.934 276.355L463.936 302.181L446.974 293.505L440.286 266.522Z" fill="#6957BA" stroke="#6957BA"/>
<path d="M439.986 260.784L455.472 252.22L483.6 255.376L468.219 266.447L439.986 260.784Z" fill="#6957BA" stroke="#6957BA"/>
<path d="M518.513 259.122L511.912 275.087L487.835 289.425L492.734 271.558L518.513 259.122Z" fill="#6957BA" stroke="#6957BA"/>
<path d="M486.805 260.308L487.395 277.48L471.291 299.886L468.35 281.625L486.805 260.308Z" fill="#6957BA" stroke="#6957BA"/>
<path d="M360.309 135.414L377.161 141.111L393.031 163.671L374.272 159.686L360.309 135.414Z" fill="#6957BA" stroke="#6957BA"/>
<path d="M433.349 143.686L422.598 157.407L395.438 165.118L405.071 149.13L433.349 143.686Z" fill="#6957BA" stroke="#6957BA"/>
<path d="M367.604 90.8452L372.335 107.413L362.097 132.809L354.817 115.709L367.604 90.8452Z" fill="#6957BA" stroke="#6957BA"/>
<path d="M398.432 101.881L403.163 118.449L392.926 143.845L385.646 126.745L398.432 101.881Z" fill="#6957BA" stroke="#6957BA"/>
<path d="M345.081 129.412L355.644 143.267L355.496 170.505L342.354 157.027L345.081 129.412Z" fill="#6957BA" stroke="#6957BA"/>
<path d="M347.249 192.231L364.138 197.826L380.155 220.289L361.37 216.417L347.249 192.231Z" fill="#6957BA" stroke="#6957BA"/>
<path d="M345.327 186.791L357.779 174.473L385.729 170.093L374.091 184.795L345.327 186.791Z" fill="#6957BA" stroke="#6957BA"/>
<path d="M420.372 164.491L418.573 181.585L399.504 201.722L399.124 183.247L420.372 164.491Z" fill="#6957BA" stroke="#6957BA"/>
<path d="M390.216 173.991L395.677 190.35L386.574 216.143L378.543 199.357L390.216 173.991Z" fill="#6957BA" stroke="#6957BA"/>
<path d="M1265.65 668.691L1274.62 683.547L1271.47 710.616L1259.89 695.872L1265.65 668.691Z" fill="#6957BA" stroke="#6957BA"/>
<path d="M1315.63 720.589L1298.19 724.313L1272.33 713.22L1290.44 707.073L1315.63 720.589Z" fill="#6957BA" stroke="#6957BA"/>
<path d="M1301.28 639.343L1293.7 654.9L1268.77 667.827L1274.77 650.274L1301.28 639.343Z" fill="#6957BA" stroke="#6957BA"/>
<path d="M1317.28 666.987L1309.7 682.544L1284.77 695.47L1290.77 677.917L1317.28 666.987Z" fill="#6957BA" stroke="#6957BA"/>
<path d="M1258.12 654.618L1256.8 671.753L1238.31 692.38L1237.41 673.922L1258.12 654.618Z" fill="#6957BA" stroke="#6957BA"/>
<path d="M1217.37 703.757L1226.44 718.558L1223.47 745.645L1211.79 730.972L1217.37 703.757Z" fill="#6957BA" stroke="#6957BA"/>
<path d="M1219.58 698.418L1237.37 696.823L1261.58 710.942L1242.81 714.86L1219.58 698.418Z" fill="#6957BA" stroke="#6957BA"/>
<path d="M1291.72 728.311L1278.81 740.191L1250.72 743.603L1262.9 729.312L1291.72 728.311Z" fill="#6957BA" stroke="#6957BA"/>
<path d="M1262.37 716.709L1255.48 732.563L1231.15 746.5L1236.37 728.716L1262.37 716.709Z" fill="#6957BA" stroke="#6957BA"/>
<path d="M806.818 794.407L813.977 805.31L810.483 825.722L801.11 814.977L806.818 794.407Z" fill="#6957BA" stroke="#6957BA"/>
<path d="M847.626 831.971L832.725 835.257L811.129 827.653L826.678 822.53L847.626 831.971Z" fill="#6957BA" stroke="#6957BA"/>
<path d="M837.919 771.373L831.017 783.266L809.488 793.671L815.11 780.323L837.919 771.373Z" fill="#6957BA" stroke="#6957BA"/>
<path d="M850.651 791.68L843.75 803.573L822.22 813.977L827.842 800.63L850.651 791.68Z" fill="#6957BA" stroke="#6957BA"/>
<path d="M800.856 784.052L799.221 796.954L782.912 812.96L782.707 799.127L800.856 784.052Z" fill="#6957BA" stroke="#6957BA"/>
<path d="M764.813 822.089L772.057 832.948L768.712 853.369L759.255 842.68L764.813 822.089Z" fill="#6957BA" stroke="#6957BA"/>
<path d="M766.848 818.019L781.979 816.322L802.087 826.244L786.048 829.712L766.848 818.019Z" fill="#6957BA" stroke="#6957BA"/>
<path d="M827.114 838.44L815.811 847.722L791.882 851.071L802.643 840L827.114 838.44Z" fill="#6957BA" stroke="#6957BA"/>
<path d="M802.576 830.552L796.256 842.649L775.2 853.795L780.165 840.297L802.576 830.552Z" fill="#6957BA" stroke="#6957BA"/>
<path d="M1290.35 888.481L1295.02 896.294L1293.47 910.477L1287.47 902.716L1290.35 888.481Z" fill="#6957BA" stroke="#6957BA"/>
<path d="M1316.24 915.824L1307.27 917.729L1293.92 911.844L1303.23 908.67L1316.24 915.824Z" fill="#6957BA" stroke="#6957BA"/>
<path d="M1308.61 873.191L1304.75 881.326L1291.96 888.036L1295 878.849L1308.61 873.191Z" fill="#6957BA" stroke="#6957BA"/>
<path d="M1316.93 887.726L1313.07 895.862L1300.28 902.571L1303.32 893.385L1316.93 887.726Z" fill="#6957BA" stroke="#6957BA"/>
<path d="M1286.43 881.082L1285.81 890.062L1276.34 900.826L1275.83 891.147L1286.43 881.082Z" fill="#6957BA" stroke="#6957BA"/>
<path d="M1265.6 906.734L1270.31 914.518L1268.86 928.711L1262.8 920.987L1265.6 906.734Z" fill="#6957BA" stroke="#6957BA"/>
<path d="M1266.72 903.941L1275.87 903.153L1288.38 910.62L1278.73 912.623L1266.72 903.941Z" fill="#6957BA" stroke="#6957BA"/>
<path d="M1303.95 919.808L1297.34 926.001L1282.88 927.714L1289.11 920.255L1303.95 919.808Z" fill="#6957BA" stroke="#6957BA"/>
<path d="M1288.8 913.646L1285.3 921.939L1272.82 929.18L1275.45 919.871L1288.8 913.646Z" fill="#6957BA" stroke="#6957BA"/>
<path d="M1384.26 932.513L1378.4 939.538L1364.1 943.323L1369.43 935.115L1384.26 932.513Z" fill="#6957BA" stroke="#6957BA"/>
<path d="M1367.22 965.663L1362.11 958.324L1362.94 944.222L1369.41 951.405L1367.22 965.663Z" fill="#6957BA" stroke="#6957BA"/>
<path d="M1405.72 943.296L1396.43 942.804L1385.27 933.786L1395.28 933.161L1405.72 943.296Z" fill="#6957BA" stroke="#6957BA"/>
<path d="M1394.68 956.046L1385.39 955.554L1374.23 946.536L1384.24 945.911L1394.68 956.046Z" fill="#6957BA" stroke="#6957BA"/>
<path d="M1389.99 926.305L1381.07 929.016L1367.2 924.462L1376.39 920.472L1389.99 926.305Z" fill="#6957BA" stroke="#6957BA"/>
<path d="M1357.57 916.989L1351.75 924.048L1337.48 927.919L1342.75 919.68L1357.57 916.989Z" fill="#6957BA" stroke="#6957BA"/>
<path d="M1360.68 916.976L1364.78 924.888L1362.11 938.815L1356.65 930.896L1360.68 916.976Z" fill="#6957BA" stroke="#6957BA"/>
<path d="M1358.88 956.106L1350.48 952.443L1343.55 940.118L1353.05 942.979L1358.88 956.106Z" fill="#6957BA" stroke="#6957BA"/>
<path d="M1359.33 940.294L1350.03 940.181L1338.47 931.634L1348.44 930.603L1359.33 940.294Z" fill="#6957BA" stroke="#6957BA"/>
<path d="M1474.03 677.836L1469.54 694.466L1447.5 711.567L1450.06 693.253L1474.03 677.836Z" fill="#6957BA" stroke="#6957BA"/>
<path d="M1471.59 748.536L1456.47 739.381L1446.21 713.995L1463.58 721.888L1471.59 748.536Z" fill="#6957BA" stroke="#6957BA"/>
<path d="M1520.82 681.092L1504.05 687.015L1476.88 679.331L1493.99 670.92L1520.82 681.092Z" fill="#6957BA" stroke="#6957BA"/>
<path d="M1511.97 711.565L1495.2 717.488L1468.03 709.804L1485.14 701.393L1511.97 711.565Z" fill="#6957BA" stroke="#6957BA"/>
<path d="M1478.98 662.736L1465.51 674.022L1437.28 676.163L1450.14 662.438L1478.98 662.736Z" fill="#6957BA" stroke="#6957BA"/>
<path d="M1414.08 670.08L1409.7 686.736L1387.77 703.971L1390.2 685.642L1414.08 670.08Z" fill="#6957BA" stroke="#6957BA"/>
<path d="M1419.55 667.781L1433.36 678.684L1440.24 705.106L1424.03 695.184L1419.55 667.781Z" fill="#6957BA" stroke="#6957BA"/>
<path d="M1448.94 737.841L1431.08 737.55L1408.62 720.96L1427.73 719.048L1448.94 737.841Z" fill="#6957BA" stroke="#6957BA"/>
<path d="M1436.57 709.734L1420.08 716.339L1392.6 709.776L1409.32 700.671L1436.57 709.734Z" fill="#6957BA" stroke="#6957BA"/>
<path d="M1029.8 674.411L1026.63 687.223L1009.25 699.95L1010.81 685.78L1029.8 674.411Z" fill="#6957BA" stroke="#6957BA"/>
<path d="M1029.78 729.307L1017.28 721.802L1008.26 701.804L1022.55 708.386L1029.78 729.307Z" fill="#6957BA" stroke="#6957BA"/>
<path d="M1067.79 678.144L1054.38 682.317L1032.15 675.646L1045.78 669.548L1067.79 678.144Z" fill="#6957BA" stroke="#6957BA"/>
<path d="M1061.47 701.606L1048.05 705.779L1025.83 699.108L1039.45 693.009L1061.47 701.606Z" fill="#6957BA" stroke="#6957BA"/>
<path d="M1033.39 662.801L1022.79 671.227L999.978 672.167L1010.02 661.827L1033.39 662.801Z" fill="#6957BA" stroke="#6957BA"/>
<path d="M981.015 666.841L977.929 679.677L960.642 692.51L962.107 678.325L981.015 666.841Z" fill="#6957BA" stroke="#6957BA"/>
<path d="M985.386 665.195L996.874 674.025L1003.18 694.741L989.776 686.612L985.386 665.195Z" fill="#6957BA" stroke="#6957BA"/>
<path d="M1011.14 720.411L996.667 719.726L978.011 706.253L993.437 705.257L1011.14 720.411Z" fill="#6957BA" stroke="#6957BA"/>
<path d="M1000.34 698.244L987.167 702.955L964.719 697.147L978.009 690.499L1000.34 698.244Z" fill="#6957BA" stroke="#6957BA"/>
<path d="M1765.81 410.052L1771.49 418.714L1769.5 434.922L1762.18 426.384L1765.81 410.052Z" fill="#6957BA" stroke="#6957BA"/>
<path d="M1797.42 439.902L1786.39 442.504L1770.04 436.455L1781.49 432.394L1797.42 439.902Z" fill="#6957BA" stroke="#6957BA"/>
<path d="M1788.32 391.775L1783.53 401.216L1767.78 409.468L1771.57 398.871L1788.32 391.775Z" fill="#6957BA" stroke="#6957BA"/>
<path d="M1798.45 407.907L1793.66 417.348L1777.9 425.6L1781.69 415.004L1798.45 407.907Z" fill="#6957BA" stroke="#6957BA"/>
<path d="M1761.04 401.826L1760.22 412.071L1748.53 424.774L1747.96 413.788L1761.04 401.826Z" fill="#6957BA" stroke="#6957BA"/>
<path d="M1735.3 432.014L1741.04 440.641L1739.16 456.856L1731.78 448.363L1735.3 432.014Z" fill="#6957BA" stroke="#6957BA"/>
<path d="M1736.69 428.783L1747.94 427.443L1763.25 435.332L1751.38 438.078L1736.69 428.783Z" fill="#6957BA" stroke="#6957BA"/>
<path d="M1782.3 445.029L1774.15 452.395L1756.39 455.043L1764.08 446.256L1782.3 445.029Z" fill="#6957BA" stroke="#6957BA"/>
<path d="M1763.75 438.754L1759.4 448.357L1744.02 457.198L1747.31 446.481L1763.75 438.754Z" fill="#6957BA" stroke="#6957BA"/>
<path d="M1736.37 100.128L1741.62 108.013L1739.65 122.852L1732.86 115.09L1736.37 100.128Z" fill="#6957BA" stroke="#6957BA"/>
<path d="M1765.72 127.226L1755.4 129.677L1740.14 124.251L1750.88 120.462L1765.72 127.226Z" fill="#6957BA" stroke="#6957BA"/>
<path d="M1757.56 83.2638L1753.01 91.9306L1738.22 99.5808L1741.84 89.8634L1757.56 83.2638Z" fill="#6957BA" stroke="#6957BA"/>
<path d="M1766.91 97.9539L1762.37 106.621L1747.57 114.271L1751.19 104.554L1766.91 97.9539Z" fill="#6957BA" stroke="#6957BA"/>
<path d="M1731.97 92.6341L1731.12 102.011L1720.1 113.705L1719.64 103.661L1731.97 92.6341Z" fill="#6957BA" stroke="#6957BA"/>
<path d="M1707.68 120.414L1712.98 128.268L1711.12 143.112L1704.27 135.391L1707.68 120.414Z" fill="#6957BA" stroke="#6957BA"/>
<path d="M1709 117.45L1719.53 116.151L1733.8 123.268L1722.68 125.856L1709 117.45Z" fill="#6957BA" stroke="#6957BA"/>
<path d="M1751.55 132.014L1743.87 138.804L1727.24 141.341L1734.5 133.254L1751.55 132.014Z" fill="#6957BA" stroke="#6957BA"/>
<path d="M1734.24 126.394L1730.1 135.206L1715.66 143.393L1718.81 133.569L1734.24 126.394Z" fill="#6957BA" stroke="#6957BA"/>
<path d="M1665.34 253.094L1672.85 259.054L1675.7 273.761L1666.76 268.372L1665.34 253.094Z" fill="#6957BA" stroke="#6957BA"/>
<path d="M1701.92 270.244L1692.86 275.62L1676.61 274.947L1685.63 268.177L1701.92 270.244Z" fill="#6957BA" stroke="#6957BA"/>
<path d="M1680.15 230.799L1678.58 240.389L1666.93 252.029L1667.28 241.712L1680.15 230.799Z" fill="#6957BA" stroke="#6957BA"/>
<path d="M1693.73 242.028L1692.16 251.618L1680.51 263.258L1680.86 252.941L1693.73 242.028Z" fill="#6957BA" stroke="#6957BA"/>
<path d="M1658.77 247.256L1660.95 256.431L1654.18 270.81L1650.55 261.383L1658.77 247.256Z" fill="#6957BA" stroke="#6957BA"/>
<path d="M1644.49 280.857L1652.04 286.77L1654.99 301.451L1646.01 296.118L1644.49 280.857Z" fill="#6957BA" stroke="#6957BA"/>
<path d="M1644.81 277.644L1654.41 273.307L1670.26 275.88L1660.5 281.619L1644.81 277.644Z" fill="#6957BA" stroke="#6957BA"/>
<path d="M1689.95 278.977L1684.8 287.702L1669.77 295.016L1674.11 285.179L1689.95 278.977Z" fill="#6957BA" stroke="#6957BA"/>
<path d="M1671.68 278.726L1670.54 288.333L1659.4 300.381L1659.28 290.099L1671.68 278.726Z" fill="#6957BA" stroke="#6957BA"/>
<path d="M1813.99 199.626L1817.87 206.113L1816.32 217.898L1811.29 211.455L1813.99 199.626Z" fill="#6957BA" stroke="#6957BA"/>
<path d="M1835.78 222.32L1828.05 223.911L1816.68 219.034L1824.72 216.388L1835.78 222.32Z" fill="#6957BA" stroke="#6957BA"/>
<path d="M1829.91 186.906L1826.46 193.668L1815.37 199.255L1818.13 191.62L1829.91 186.906Z" fill="#6957BA" stroke="#6957BA"/>
<path d="M1836.82 198.975L1833.38 205.738L1822.28 211.324L1825.04 203.689L1836.82 198.975Z" fill="#6957BA" stroke="#6957BA"/>
<path d="M1810.74 193.482L1810.06 200.944L1801.77 209.896L1801.48 201.854L1810.74 193.482Z" fill="#6957BA" stroke="#6957BA"/>
<path d="M1792.45 214.814L1796.37 221.277L1794.9 233.071L1789.82 226.659L1792.45 214.814Z" fill="#6957BA" stroke="#6957BA"/>
<path d="M1793.45 212.493L1801.32 211.829L1811.95 218.022L1803.62 219.696L1793.45 212.493Z" fill="#6957BA" stroke="#6957BA"/>
<path d="M1825.16 225.641L1819.39 230.793L1806.95 232.229L1812.42 226.026L1825.16 225.641Z" fill="#6957BA" stroke="#6957BA"/>
<path d="M1812.26 220.536L1809.12 227.429L1798.29 233.457L1800.7 225.72L1812.26 220.536Z" fill="#6957BA" stroke="#6957BA"/>
<path d="M1822.9 277.35L1820.59 284.496L1810.54 291.407L1812.04 283.478L1822.9 277.35Z" fill="#6957BA" stroke="#6957BA"/>
<path d="M1820.39 308.145L1813.92 303.771L1809.92 292.434L1817.4 296.314L1820.39 308.145Z" fill="#6957BA" stroke="#6957BA"/>
<path d="M1843.42 279.944L1835.92 282.109L1824.12 278.074L1831.82 274.832L1843.42 279.944Z" fill="#6957BA" stroke="#6957BA"/>
<path d="M1838.9 293.021L1831.41 295.186L1819.61 291.152L1827.31 287.91L1838.9 293.021Z" fill="#6957BA" stroke="#6957BA"/>
<path d="M1825.38 270.885L1819.22 275.472L1806.76 275.7L1812.7 270.032L1825.38 270.885Z" fill="#6957BA" stroke="#6957BA"/>
<path d="M1796.68 272.463L1794.41 279.623L1784.41 286.595L1785.86 278.657L1796.68 272.463Z" fill="#6957BA" stroke="#6957BA"/>
<path d="M1799.13 271.597L1804.98 276.701L1807.47 288.405L1800.55 283.669L1799.13 271.597Z" fill="#6957BA" stroke="#6957BA"/>
<path d="M1810.64 302.91L1802.79 302.335L1793.24 294.532L1801.69 294.176L1810.64 302.91Z" fill="#6957BA" stroke="#6957BA"/>
<path d="M1805.77 290.333L1798.38 292.802L1786.42 289.25L1793.96 285.695L1805.77 290.333Z" fill="#6957BA" stroke="#6957BA"/>
<path d="M1682.8 38.8809L1687.86 33.2738L1700.15 31.7608L1695.55 38.5186L1682.8 38.8809Z" fill="#6957BA" stroke="#6957BA"/>
<path d="M1697.56 10.9812L1701.92 18.361L1701.15 31.0988L1695.63 23.6776L1697.56 10.9812Z" fill="#6957BA" stroke="#6957BA"/>
<path d="M1664.42 26.1491L1672.38 27.8546L1681.93 37.5832L1673.34 36.7982L1664.42 26.1491Z" fill="#6957BA" stroke="#6957BA"/>
<path d="M1673.95 16.0262L1681.92 17.7316L1691.46 27.4602L1682.87 26.6752L1673.95 16.0262Z" fill="#6957BA" stroke="#6957BA"/>
<path d="M1677.85 43.7608L1685.52 42.4994L1697.42 48.5271L1689.51 50.9201L1677.85 43.7608Z" fill="#6957BA" stroke="#6957BA"/>
<path d="M1705.66 56.642L1710.69 50.9975L1722.95 49.4035L1718.4 56.1967L1705.66 56.642Z" fill="#6957BA" stroke="#6957BA"/>
<path d="M1702.99 56.2323L1699.5 48.4678L1701.85 36.1384L1706.5 44.0935L1702.99 56.2323Z" fill="#6957BA" stroke="#6957BA"/>
<path d="M1704.68 20.8186L1711.88 25.2954L1717.78 37.4645L1709.64 33.5714L1704.68 20.8186Z" fill="#6957BA" stroke="#6957BA"/>
<path d="M1704.24 35.1673L1712.23 36.53L1722.12 45.8839L1713.55 45.4733L1704.24 35.1673Z" fill="#6957BA" stroke="#6957BA"/>
<path d="M1736.16 505.845L1731.28 515.5L1715.52 523.268L1719.42 512.339L1736.16 505.845Z" fill="#6957BA" stroke="#6957BA"/>
<path d="M1725.67 548.958L1717.51 541.461L1714.41 524.599L1724.11 531.6L1725.67 548.958Z" fill="#6957BA" stroke="#6957BA"/>
<path d="M1764.59 513.647L1753.5 515.204L1737.72 507.116L1749.34 504.072L1764.59 513.647Z" fill="#6957BA" stroke="#6957BA"/>
<path d="M1755.26 531.263L1744.17 532.82L1728.4 524.732L1740.01 521.688L1755.26 531.263Z" fill="#6957BA" stroke="#6957BA"/>
<path d="M1741.12 497.185L1731.39 502.445L1713.71 500.259L1723.38 493.425L1741.12 497.185Z" fill="#6957BA" stroke="#6957BA"/>
<path d="M1700.18 493.645L1695.36 503.331L1679.65 511.195L1683.48 500.241L1700.18 493.645Z" fill="#6957BA" stroke="#6957BA"/>
<path d="M1703.84 492.913L1710.97 501.32L1711.86 518.399L1703.13 510.296L1703.84 492.913Z" fill="#6957BA" stroke="#6957BA"/>
<path d="M1713.07 539.582L1702.09 537.188L1690.35 524.215L1702.38 525.41L1713.07 539.582Z" fill="#6957BA" stroke="#6957BA"/>
<path d="M1709.01 520.787L1698 522.798L1681.89 515.359L1693.36 511.842L1709.01 520.787Z" fill="#6957BA" stroke="#6957BA"/>
<path d="M1782.42 512.652L1779.47 518.921L1770.38 525.208L1772.81 518.282L1782.42 512.652Z" fill="#6957BA" stroke="#6957BA"/>
<path d="M1775.64 539.455L1771.16 535.843L1769.73 526.117L1775.1 529.271L1775.64 539.455Z" fill="#6957BA" stroke="#6957BA"/>
<path d="M1798.39 514.316L1792.07 516.41L1783.28 513.246L1789.93 510.211L1798.39 514.316Z" fill="#6957BA" stroke="#6957BA"/>
<path d="M1792.76 525.798L1786.44 527.891L1777.66 524.727L1784.3 521.692L1792.76 525.798Z" fill="#6957BA" stroke="#6957BA"/>
<path d="M1785.4 506.968L1779.78 511.127L1769.8 511.681L1775.42 506.591L1785.4 506.968Z" fill="#6957BA" stroke="#6957BA"/>
<path d="M1762.26 509.16L1759.35 515.44L1750.29 521.778L1752.67 514.846L1762.26 509.16Z" fill="#6957BA" stroke="#6957BA"/>
<path d="M1764.36 508.338L1768.23 512.601L1768.41 522.689L1763.61 518.776L1764.36 508.338Z" fill="#6957BA" stroke="#6957BA"/>
<path d="M1768.68 535.19L1762.51 534.916L1756.1 528.415L1762.9 527.865L1768.68 535.19Z" fill="#6957BA" stroke="#6957BA"/>
<path d="M1766.75 524.412L1760.47 526.767L1751.48 524.025L1758.05 520.724L1766.75 524.412Z" fill="#6957BA" stroke="#6957BA"/>
<path d="M1481.75 204.044L1487.65 213.536L1486.12 230.975L1478.58 221.574L1481.75 204.044Z" fill="#6957BA" stroke="#6957BA"/>
<path d="M1514.09 237.066L1503.17 239.59L1486.7 232.644L1498 228.556L1514.09 237.066Z" fill="#6957BA" stroke="#6957BA"/>
<path d="M1503.69 184.9L1499.18 194.965L1483.69 203.465L1487.18 192.128L1503.69 184.9Z" fill="#6957BA" stroke="#6957BA"/>
<path d="M1514.23 202.568L1509.72 212.632L1494.24 221.132L1497.72 209.795L1514.23 202.568Z" fill="#6957BA" stroke="#6957BA"/>
<path d="M1476.76 195.045L1476.22 206.079L1464.92 219.486L1464.05 207.617L1476.76 195.045Z" fill="#6957BA" stroke="#6957BA"/>
<path d="M1451.93 226.96L1457.89 236.416L1456.47 253.865L1448.87 244.51L1451.93 226.96Z" fill="#6957BA" stroke="#6957BA"/>
<path d="M1453.23 223.509L1464.4 222.351L1479.89 231.257L1468.14 233.916L1453.23 223.509Z" fill="#6957BA" stroke="#6957BA"/>
<path d="M1499.16 242.21L1491.24 249.948L1473.6 252.35L1481.03 243.066L1499.16 242.21Z" fill="#6957BA" stroke="#6957BA"/>
<path d="M1480.48 234.962L1476.41 245.212L1461.32 254.358L1464.31 242.878L1480.48 234.962Z" fill="#6957BA" stroke="#6957BA"/>
<path d="M1411.03 165.86L1422.2 168.465L1434.06 181.74L1421.8 180.323L1411.03 165.86Z" fill="#6957BA" stroke="#6957BA"/>
<path d="M1458.18 166.818L1452.4 176.079L1435.7 182.511L1440.6 171.889L1458.18 166.818Z" fill="#6957BA" stroke="#6957BA"/>
<path d="M1412.21 137.388L1416.51 147.539L1411.96 164.117L1406 153.779L1412.21 137.388Z" fill="#6957BA" stroke="#6957BA"/>
<path d="M1432.7 142.54L1437 152.691L1432.45 169.269L1426.49 158.931L1432.7 142.54Z" fill="#6957BA" stroke="#6957BA"/>
<path d="M1400.86 162.969L1408.66 171.074L1410.68 188.224L1401.27 180.507L1400.86 162.969Z" fill="#6957BA" stroke="#6957BA"/>
<path d="M1407.12 202.377L1418.31 204.916L1430.25 218.121L1417.99 216.777L1407.12 202.377Z" fill="#6957BA" stroke="#6957BA"/>
<path d="M1405.47 199.065L1412.44 190.588L1429.91 186.206L1423.63 196.136L1405.47 199.065Z" fill="#6957BA" stroke="#6957BA"/>
<path d="M1451.53 180.666L1451.71 191.528L1441.13 205.31L1439.46 193.706L1451.53 180.666Z" fill="#6957BA" stroke="#6957BA"/>
<path d="M1433.07 188.399L1437.81 198.376L1434.02 215.138L1427.6 205.041L1433.07 188.399Z" fill="#6957BA" stroke="#6957BA"/>
<path d="M1438.69 460.28L1442.92 473.779L1435.04 494.807L1428.71 480.921L1438.69 460.28Z" fill="#6957BA" stroke="#6957BA"/>
<path d="M1468.36 510.845L1453.68 510.627L1435.21 497.042L1450.91 495.45L1468.36 510.845Z" fill="#6957BA" stroke="#6957BA"/>
<path d="M1472.98 443.374L1463.84 454.404L1441.36 460.16L1449.63 447.249L1472.98 443.374Z" fill="#6957BA" stroke="#6957BA"/>
<path d="M1480.3 468.363L1471.16 479.393L1448.67 485.149L1456.95 472.238L1480.3 468.363Z" fill="#6957BA" stroke="#6957BA"/>
<path d="M1435.46 447.669L1431.02 461.105L1412.15 474.184L1415.08 459.288L1435.46 447.669Z" fill="#6957BA" stroke="#6957BA"/>
<path d="M1393.16 479.434L1397.48 492.907L1389.73 513.983L1383.31 500.135L1393.16 479.434Z" fill="#6957BA" stroke="#6957BA"/>
<path d="M1395.98 475.578L1410.51 477.558L1427.07 493.258L1411.29 492.95L1395.98 475.578Z" fill="#6957BA" stroke="#6957BA"/>
<path d="M1447.72 512.634L1435.05 519.755L1411.92 517.338L1424.48 508.16L1447.72 512.634Z" fill="#6957BA" stroke="#6957BA"/>
<path d="M1426.56 498.004L1417.91 509.398L1395.7 516.07L1403.4 502.831L1426.56 498.004Z" fill="#6957BA" stroke="#6957BA"/>
<path d="M1570.91 414.35L1570.22 423.354L1560.61 434.261L1560.15 424.572L1570.91 414.35Z" fill="#6957BA" stroke="#6957BA"/>
<path d="M1576.5 451.056L1567.89 447.762L1560.18 435.637L1569.83 438.066L1576.5 451.056Z" fill="#6957BA" stroke="#6957BA"/>
<path d="M1595.14 411.605L1587.14 416.247L1572.51 414.852L1580.44 408.895L1595.14 411.605Z" fill="#6957BA" stroke="#6957BA"/>
<path d="M1593.56 428.163L1585.56 432.805L1570.94 431.41L1578.86 425.453L1593.56 428.163Z" fill="#6957BA" stroke="#6957BA"/>
<path d="M1571.98 406.093L1566.18 413.19L1551.96 416.965L1557.21 408.667L1571.98 406.093Z" fill="#6957BA" stroke="#6957BA"/>
<path d="M1539.52 416.02L1538.89 425.028L1529.35 435.993L1528.82 426.307L1539.52 416.02Z" fill="#6957BA" stroke="#6957BA"/>
<path d="M1542.1 414.317L1550.2 418.636L1556.28 431.616L1547.03 428.03L1542.1 414.317Z" fill="#6957BA" stroke="#6957BA"/>
<path d="M1563.89 447.68L1554.74 449.219L1541.65 442.785L1551.23 439.991L1563.89 447.68Z" fill="#6957BA" stroke="#6957BA"/>
<path d="M1554.85 434.349L1547.06 439.317L1532.38 438.531L1540.05 432.252L1554.85 434.349Z" fill="#6957BA" stroke="#6957BA"/>
<path d="M1391.95 269.288L1398.97 264.573L1412.54 264.994L1405.68 270.909L1391.95 269.288Z" fill="#6957BA" stroke="#6957BA"/>
<path d="M1415.71 244.211L1418.26 252.126L1413.79 264.5L1410.01 256.365L1415.71 244.211Z" fill="#6957BA" stroke="#6957BA"/>
<path d="M1375.95 253.951L1383.98 256.859L1391.4 267.881L1382.44 265.78L1375.95 253.951Z" fill="#6957BA" stroke="#6957BA"/>
<path d="M1389.03 245.498L1397.06 248.407L1404.48 259.429L1395.52 257.327L1389.03 245.498Z" fill="#6957BA" stroke="#6957BA"/>
<path d="M1385.27 273.308L1393.83 273.26L1404.81 281.016L1395.69 282.138L1385.27 273.308Z" fill="#6957BA" stroke="#6957BA"/>
<path d="M1411.31 290.254L1418.29 285.496L1431.86 285.834L1425.05 291.791L1411.31 290.254Z" fill="#6957BA" stroke="#6957BA"/>
<path d="M1408.57 289.437L1407.06 281.281L1413.1 269.551L1415.8 278.076L1408.57 289.437Z" fill="#6957BA" stroke="#6957BA"/>
<path d="M1420.51 254.964L1426.93 260.472L1429.75 273.322L1422.16 268.242L1420.51 254.964Z" fill="#6957BA" stroke="#6957BA"/>
<path d="M1415.93 268.969L1424.08 271.544L1431.98 282.253L1422.94 280.522L1415.93 268.969Z" fill="#6957BA" stroke="#6957BA"/>
<path d="M1377.35 789.281L1370.78 799.033L1353.2 806.097L1358.94 794.951L1377.35 789.281Z" fill="#6957BA" stroke="#6957BA"/>
<path d="M1359.81 833.574L1352.48 825.212L1351.84 807.412L1360.86 815.359L1359.81 833.574Z" fill="#6957BA" stroke="#6957BA"/>
<path d="M1405.71 799.3L1393.94 800.193L1378.78 790.711L1391.33 788.303L1405.71 799.3Z" fill="#6957BA" stroke="#6957BA"/>
<path d="M1393.3 817.066L1381.53 817.958L1366.37 808.476L1378.92 806.068L1393.3 817.066Z" fill="#6957BA" stroke="#6957BA"/>
<path d="M1383.84 780.573L1372.9 785.418L1354.86 781.969L1365.97 775.477L1383.84 780.573Z" fill="#6957BA" stroke="#6957BA"/>
<path d="M1341.8 774.174L1335.3 783.962L1317.76 791.129L1323.43 779.953L1341.8 774.174Z" fill="#6957BA" stroke="#6957BA"/>
<path d="M1345.73 773.652L1351.85 782.896L1350.14 800.775L1342.31 791.743L1345.73 773.652Z" fill="#6957BA" stroke="#6957BA"/>
<path d="M1348.14 822.958L1337.1 819.735L1326.88 805.422L1339.2 807.464L1348.14 822.958Z" fill="#6957BA" stroke="#6957BA"/>
<path d="M1346.82 803.079L1335.06 804.45L1319.45 795.623L1331.91 792.71L1346.82 803.079Z" fill="#6957BA" stroke="#6957BA"/>
</svg>
