<svg width="152" height="106" viewBox="0 0 152 106" fill="none" xmlns="http://www.w3.org/2000/svg">
<path d="M93.6102 26.2258L97.5176 41.7062L83.9219 63.3526L77.2045 47.0897L93.6102 26.2258Z" fill="#6957BA" stroke="#6957BA"/>
<path d="M127.043 86.5698L107.113 83.8286L83.8437 65.8241L105.412 66.7614L127.043 86.5698Z" fill="#6957BA" stroke="#6957BA"/>
<path d="M142.557 13.59L128.615 24.0895L97.2485 26.5487L110.268 13.8432L142.557 13.59Z" fill="#6957BA" stroke="#6957BA"/>
<path d="M149.089 42.1618L135.147 52.6613L103.78 55.1205L116.8 42.415L149.089 42.1618Z" fill="#6957BA" stroke="#6957BA"/>
<path d="M90.937 11.8861L83.0533 25.8173L55.6028 36.9L61.6333 21.1135L90.937 11.8861Z" fill="#6957BA" stroke="#6957BA"/>
<path d="M29.0615 39.4018L33.0925 54.869L19.6778 76.5905L12.8317 60.3543L29.0615 39.4018Z" fill="#6957BA" stroke="#6957BA"/>
<path d="M33.4275 35.6667L52.921 40.3104L73.2957 60.2998L51.8735 57.2713L33.4275 35.6667Z" fill="#6957BA" stroke="#6957BA"/>
<path d="M98.7241 85.0049L80.5214 90.6303L49.3911 84.0419L67.7356 76.1509L98.7241 85.0049Z" fill="#6957BA" stroke="#6957BA"/>
<path d="M71.9445 65.4008L58.6296 76.3834L27.513 79.8904L39.7878 66.7284L71.9445 65.4008Z" fill="#6957BA" stroke="#6957BA"/>
</svg>
