<svg width="170" height="147" viewBox="0 0 170 147" fill="none" xmlns="http://www.w3.org/2000/svg">
<path d="M58.6985 91.9578L60.3841 76.0811L80.6252 60.47L81.3058 78.0524L58.6985 91.9578Z" fill="#6957BA" stroke="#6957BA"/>
<path d="M48.19 23.7761L65.9435 33.2387L81.5534 58.1779L61.6395 49.8418L48.19 23.7761Z" fill="#6957BA" stroke="#6957BA"/>
<path d="M8.40139 86.892L25.1138 81.8602L55.3964 90.397L38.787 97.8177L8.40139 86.892Z" fill="#6957BA" stroke="#6957BA"/>
<path d="M12.1507 57.8241L28.8631 52.7923L59.1457 61.3291L42.5362 68.7498L12.1507 57.8241Z" fill="#6957BA" stroke="#6957BA"/>
<path d="M56.2493 106.337L68.4633 95.9908L98.0526 95.0821L86.9361 107.81L56.2493 106.337Z" fill="#6957BA" stroke="#6957BA"/>
<path d="M123.822 101.911L125.387 86.0036L145.485 70.2595L146.295 87.8613L123.822 101.911Z" fill="#6957BA" stroke="#6957BA"/>
<path d="M118.434 103.906L101.748 92.809L89.5409 67.0082L108.595 77.2563L118.434 103.906Z" fill="#6957BA" stroke="#6957BA"/>
<path d="M74.2218 35.0352L93.2468 36.0498L120.18 52.9946L100.238 54.0568L74.2218 35.0352Z" fill="#6957BA" stroke="#6957BA"/>
<path d="M92.5723 62.6889L108.863 56.9868L139.273 64.454L123.205 72.5607L92.5723 62.6889Z" fill="#6957BA" stroke="#6957BA"/>
</svg>
