<svg width="90" height="101" viewBox="0 0 90 101" fill="none" xmlns="http://www.w3.org/2000/svg">
<path d="M21.6269 44.7703L36.5603 39.6996L60.5557 46.8029L45.2943 54.0756L21.6269 44.7703Z" fill="#6957BA"/>
<path d="M76.8649 11.4485L77.3637 26.6736L63.0546 46.5162L60.4737 30.3232L76.8649 11.4485Z" fill="#6957BA"/>
<path d="M0.919922 10.082L13.7592 18.9994L21.3576 42.0155L6.44994 34.093L0.919922 10.082Z" fill="#6957BA"/>
<path d="M28.5927 1.22949L41.432 10.1469L49.0304 33.163L34.1227 25.2406L28.5927 1.22949Z" fill="#6957BA"/>
<path d="M7.63927 48.7627L22.9408 52.6892L38.5736 71.5852L21.7087 69.2977L7.63927 48.7627Z" fill="#6957BA"/>
<path d="M45.4268 91.0017L60.3267 85.8407L84.3681 92.7989L69.1546 100.164L45.4268 91.0017Z" fill="#6957BA"/>
<path d="M40.9559 88.2715L42.4423 73.1061L59.221 55.1423L59.6744 71.5186L40.9559 88.2715Z" fill="#6957BA"/>
<path d="M79.9161 32.763L88.5463 45.5286L86.9974 69.6272L76.0647 57.0728L79.9161 32.763Z" fill="#6957BA"/>
<path d="M64.5732 55.4372L77.796 63.82L86.4075 86.5037L71.1623 79.1997L64.5732 55.4372Z" fill="#6957BA"/>
<path d="M21.6269 44.7703L36.5603 39.6996L60.5557 46.8029L45.2943 54.0756L21.6269 44.7703Z" stroke="#6957BA"/>
<path d="M76.8649 11.4485L77.3637 26.6736L63.0546 46.5162L60.4737 30.3232L76.8649 11.4485Z" stroke="#6957BA"/>
<path d="M0.919922 10.082L13.7592 18.9994L21.3576 42.0155L6.44994 34.093L0.919922 10.082Z" stroke="#6957BA"/>
<path d="M28.5927 1.22949L41.432 10.1469L49.0304 33.163L34.1227 25.2406L28.5927 1.22949Z" stroke="#6957BA"/>
<path d="M7.63927 48.7627L22.9408 52.6892L38.5736 71.5852L21.7087 69.2977L7.63927 48.7627Z" stroke="#6957BA"/>
<path d="M45.4268 91.0017L60.3267 85.8407L84.3681 92.7989L69.1546 100.164L45.4268 91.0017Z" stroke="#6957BA"/>
<path d="M40.9559 88.2715L42.4423 73.1061L59.221 55.1423L59.6744 71.5186L40.9559 88.2715Z" stroke="#6957BA"/>
<path d="M79.9161 32.763L88.5463 45.5286L86.9974 69.6272L76.0647 57.0728L79.9161 32.763Z" stroke="#6957BA"/>
<path d="M64.5732 55.4372L77.796 63.82L86.4075 86.5037L71.1623 79.1997L64.5732 55.4372Z" stroke="#6957BA"/>
</svg>
